<svg version="1.0" xmlns="http://www.w3.org/2000/svg"
 width="225.000000pt" height="225.000000pt" viewBox="0 0 225.000000 225.000000"
 preserveAspectRatio="xMidYMid meet">

<g transform="translate(0.000000,225.000000) scale(0.100000,-0.100000)"
fill="#000000" stroke="none">
<path d="M983 1861 c-109 -40 -189 -118 -234 -226 -12 -30 -30 -57 -39 -60 -9
-3 -27 -16 -40 -30 -19 -20 -22 -34 -21 -82 0 -31 4 -66 7 -78 10 -31 44 -63
75 -70 16 -4 34 -16 41 -28 6 -12 26 -40 44 -63 l34 -41 -26 -11 c-14 -7 -37
-12 -52 -12 -37 0 -92 35 -92 59 0 11 -5 32 -12 46 -14 31 -54 34 -63 5 -6
-19 -8 -19 -35 -5 -52 27 -85 20 -119 -27 -17 -23 -31 -52 -31 -63 0 -22 58
-118 102 -167 33 -38 104 -86 139 -93 16 -4 29 -10 29 -13 0 -7 16 -115 25
-169 l6 -32 -30 29 c-23 24 -38 30 -70 30 -72 0 -100 -54 -87 -166 7 -58 39
-151 61 -173 7 -8 46 -18 87 -24 104 -14 799 -20 812 -7 5 5 35 10 67 10 76 0
100 20 129 109 17 54 21 87 18 140 -5 90 -24 114 -85 109 l-43 -3 0 35 c0 42
-25 141 -38 149 -20 13 -66 98 -78 145 -8 29 -26 62 -43 79 l-29 29 39 52 c21
28 47 73 56 100 11 28 26 51 38 56 44 17 60 48 58 114 -2 33 -8 74 -14 89 -12
28 -54 57 -83 57 -8 0 -18 9 -21 21 -13 39 -121 138 -182 166 -78 37 -221 43
-300 14z m298 -38 c35 -18 75 -43 88 -57 l23 -25 -63 27 c-59 25 -75 27 -199
27 -144 -1 -211 -16 -280 -65 -38 -27 -39 -12 -2 22 88 81 164 109 282 106 73
-3 95 -8 151 -35z m39 -71 c30 -12 73 -38 95 -58 42 -37 31 -36 -20 2 -105 77
-366 84 -513 13 -25 -13 -63 -41 -85 -63 -22 -23 -35 -31 -29 -20 27 51 123
114 212 140 73 21 272 13 340 -14z m-280 -83 c-105 -57 -153 -119 -195 -253
l-22 -69 -11 64 c-13 74 -3 139 25 178 33 44 163 102 248 110 6 0 -15 -13 -45
-30z m509 -76 c17 -38 14 -133 -6 -155 -9 -10 -19 -18 -23 -18 -4 0 -10 39
-13 88 -3 48 -8 97 -12 110 -7 21 -6 22 18 11 13 -6 30 -22 36 -36z m-145 -29
c18 -18 21 -66 6 -95 -12 -21 -50 -25 -68 -7 -19 19 -14 76 8 98 24 24 34 25
54 4z m-681 -96 c3 -46 9 -93 13 -105 4 -17 2 -23 -8 -23 -30 0 -50 38 -55
105 -5 54 -3 69 12 85 10 11 21 20 25 20 4 0 10 -37 13 -82z m620 -82 c7 -19
-17 -51 -31 -42 -13 8 -16 39 -5 49 11 12 31 8 36 -7z m-687 -153 c8 -47 20
-62 62 -80 30 -12 32 -17 32 -61 -1 -66 -15 -122 -38 -145 -18 -17 -24 -18
-56 -7 -69 23 -216 186 -216 241 0 9 12 31 27 48 31 35 66 40 101 15 19 -13
22 -22 17 -52 -4 -31 -2 -28 17 21 13 31 28 57 35 57 7 0 15 -17 19 -37z m684
-49 c0 -3 -30 -19 -67 -37 -61 -29 -77 -32 -158 -32 -72 1 -100 5 -143 24 -64
29 -63 35 3 16 88 -27 266 -14 331 23 21 13 34 15 34 6z m85 -51 c25 -38 13
-37 -18 2 -15 19 -21 32 -13 29 8 -3 22 -17 31 -31z m-479 -5 c64 -31 76 -33
174 -33 98 0 109 2 168 32 35 18 69 30 76 27 15 -6 136 -185 136 -202 0 -9
-13 -12 -47 -10 -44 3 -47 5 -60 43 -7 22 -19 44 -25 50 -8 7 -9 5 -5 -7 3 -9
9 -33 13 -52 l6 -36 -267 0 -267 0 7 33 c4 17 9 40 12 51 10 36 -14 6 -27 -33
-13 -40 -15 -41 -58 -41 -38 0 -43 2 -37 18 4 9 10 51 12 93 l5 76 47 10 c25
6 51 11 57 12 7 0 43 -14 80 -31z m594 -217 c0 -5 -17 -7 -37 -4 -57 7 -91
-10 -113 -59 -22 -49 -27 -147 -8 -166 30 -30 -83 -116 -202 -153 -87 -27
-217 -48 -320 -51 l-85 -3 -26 175 c-14 96 -29 196 -33 223 l-7 47 415 0 c242
0 416 -4 416 -9z m4 -41 c20 -19 19 -106 -2 -152 -17 -39 -25 -46 -57 -52 -70
-13 -105 36 -90 126 5 26 18 53 37 71 25 25 33 28 66 22 20 -3 41 -10 46 -15z
m-914 -160 c8 -15 4 -19 -22 -24 -63 -12 -74 -2 -38 34 21 21 45 18 60 -10z
m43 10 c27 -22 61 -111 73 -192 7 -55 -11 -108 -38 -108 -15 0 -17 7 -12 44 7
50 -18 180 -46 239 -20 42 -14 46 23 17z m937 17 c0 -2 -7 -18 -16 -35 -8 -17
-25 -70 -36 -117 -18 -70 -20 -94 -11 -126 9 -35 8 -39 -8 -39 -11 0 -19 6
-19 14 0 7 -6 19 -13 25 -14 11 -10 73 9 146 9 38 51 117 67 127 13 8 27 10
27 5z m72 -21 c19 -27 8 -39 -28 -33 -47 8 -51 13 -30 36 18 20 44 18 58 -3z
m-1029 -65 c3 -15 -2 -20 -25 -25 -56 -11 -78 -7 -78 13 0 32 94 43 103 12z
m1039 3 c4 -3 8 -12 8 -21 0 -13 -9 -15 -50 -11 -57 6 -65 10 -56 34 5 13 14
15 48 10 22 -4 45 -9 50 -12z m-205 -61 c-3 -10 -5 -4 -5 12 0 17 2 24 5 18 2
-7 2 -21 0 -30z m-817 -2 c0 -16 -9 -21 -45 -27 -51 -7 -75 -1 -75 20 0 14 24
20 93 24 21 2 27 -3 27 -17z m1003 9 c11 0 17 -8 17 -21 0 -20 -4 -21 -56 -16
-64 7 -67 8 -58 32 6 14 14 16 43 11 20 -3 44 -6 54 -6z m-196 -67 c-3 -10 -5
-4 -5 12 0 17 2 24 5 18 2 -7 2 -21 0 -30z m-797 -8 c0 -14 -6 -25 -12 -25 -7
0 -30 -3 -50 -6 -33 -6 -39 -4 -47 17 -8 22 -5 25 28 30 73 12 81 11 81 -16z
m997 11 c1 -1 0 -12 -4 -25 -5 -21 -9 -22 -57 -16 -61 9 -60 8 -51 35 6 20 11
21 58 15 29 -4 53 -8 54 -9z m-192 -106 c-8 -14 -722 -14 -730 0 -4 7 120 10
365 10 245 0 369 -3 365 -10z"/>
<path d="M1105 763 c-16 -9 -40 -17 -52 -18 -20 -1 -73 -40 -73 -54 0 -4 10
-11 23 -16 15 -7 21 -18 19 -34 -1 -16 2 -22 12 -18 19 7 36 -12 36 -40 0 -13
5 -23 11 -23 18 0 69 41 69 55 0 8 14 30 31 50 19 22 33 50 36 75 l6 40 -44 0
c-24 -1 -57 -8 -74 -17z m69 -22 c27 -30 12 -59 -47 -86 -58 -27 -80 -23 -42
7 14 11 24 23 21 26 -3 3 -15 -3 -25 -12 -11 -10 -25 -16 -32 -14 -16 5 72 98
93 98 8 0 23 -9 32 -19z"/>
<path d="M1130 720 c0 -13 7 -20 20 -20 13 0 20 7 20 20 0 13 -7 20 -20 20
-13 0 -20 -7 -20 -20z m30 0 c0 -5 -4 -10 -10 -10 -5 0 -10 5 -10 10 0 6 5 10
10 10 6 0 10 -4 10 -10z"/>
<path d="M1718 1683 c-35 -22 -68 -82 -68 -124 0 -19 9 -49 21 -68 14 -24 19
-44 15 -64 -6 -28 -5 -29 22 -22 15 3 55 10 90 14 49 7 70 15 93 37 64 61 61
154 -6 213 -30 26 -44 31 -88 31 -31 0 -63 -7 -79 -17z m143 -23 l24 -20 -30
15 c-44 22 -87 18 -131 -10 l-39 -26 33 31 c40 37 106 42 143 10z m-18 -59
c16 -2 5 -37 -20 -63 l-27 -28 -28 27 c-56 54 -28 78 75 64z"/>
</g>
</svg>
