<?xml version="1.0" standalone="no"?>
<!DOCTYPE svg PUBLIC "-//W3C//DTD SVG 20010904//EN"
 "http://www.w3.org/TR/2001/REC-SVG-20010904/DTD/svg10.dtd">
<svg version="1.0" xmlns="http://www.w3.org/2000/svg"
 width="688.000000pt" height="390.000000pt" viewBox="0 0 688.000000 390.000000"
 preserveAspectRatio="xMidYMid meet">
<metadata>
Created by potrace 1.16, written by Peter Selinger 2001-2019
</metadata>
<g transform="translate(0.000000,390.000000) scale(0.100000,-0.100000)"
fill="#000000" stroke="none">
<path d="M1855 3805 c-130 -23 -277 -94 -396 -190 -120 -97 -193 -196 -290
-393 -48 -98 -67 -127 -92 -140 -60 -32 -126 -102 -138 -146 -16 -59 -6 -280
15 -331 27 -63 83 -113 173 -155 72 -34 85 -45 116 -92 19 -29 66 -93 105
-143 l71 -89 -56 -24 c-82 -35 -146 -38 -214 -13 -88 33 -127 74 -144 149 -20
85 -40 120 -78 138 -43 21 -82 6 -104 -41 -9 -19 -20 -35 -24 -35 -4 0 -36 13
-71 30 -70 33 -141 39 -187 16 -43 -23 -110 -102 -142 -169 -16 -34 -29 -66
-29 -72 0 -23 66 -147 127 -238 137 -207 293 -336 484 -402 l47 -16 11 -82 c7
-45 23 -151 36 -235 14 -84 25 -158 25 -165 0 -6 -26 14 -57 45 -75 73 -92 80
-178 80 -110 0 -169 -40 -202 -137 -27 -76 -22 -252 10 -375 31 -119 81 -250
109 -285 43 -55 153 -80 412 -97 264 -17 1774 -17 1803 0 12 6 78 16 147 21
195 13 238 44 303 216 53 138 66 219 61 374 -6 163 -24 222 -78 259 -32 21
-44 23 -131 20 l-96 -3 -6 95 c-6 100 -44 268 -71 316 -9 16 -34 51 -56 79
-48 60 -118 202 -155 310 -34 101 -55 137 -122 205 l-53 56 66 89 c81 110 125
184 164 278 32 77 82 147 106 147 26 0 93 71 111 118 33 87 15 327 -30 394
-31 46 -101 96 -150 108 -61 15 -69 22 -97 76 -29 58 -184 216 -285 292 -167
125 -330 172 -585 171 -63 0 -146 -7 -185 -14z m460 -60 c126 -34 329 -150
390 -223 l28 -34 -39 17 c-213 92 -227 95 -385 107 -110 8 -204 7 -343 -1
-270 -16 -376 -44 -529 -140 -37 -24 -73 -41 -79 -38 -17 6 111 132 187 184
179 121 306 155 555 149 99 -3 177 -10 215 -21z m120 -199 c112 -20 245 -83
344 -163 105 -83 91 -96 -18 -18 -154 109 -352 158 -646 158 -389 0 -621 -78
-833 -277 -29 -27 -54 -47 -57 -44 -3 3 8 23 23 44 88 121 368 282 545 314 85
15 538 5 642 -14z m-485 -195 c-25 -15 -80 -50 -124 -76 -221 -135 -318 -271
-422 -593 -25 -79 -48 -142 -50 -140 -2 2 -11 51 -20 108 -21 132 -15 312 12
385 37 99 166 197 364 275 66 27 225 69 260 69 22 1 19 -3 -20 -28z m1102
-150 c73 -46 92 -98 93 -246 0 -135 -17 -201 -61 -230 -44 -29 -44 -29 -69
260 -8 94 -19 186 -25 205 -12 43 -13 40 3 40 7 0 34 -13 59 -29z m-304 -127
c36 -25 55 -74 56 -139 1 -103 -37 -155 -114 -155 -44 0 -70 16 -86 55 -29 71
-11 161 46 217 41 41 64 46 98 22z m-1649 -149 c5 -44 13 -118 16 -165 4 -47
13 -118 21 -159 7 -40 11 -78 8 -82 -3 -5 -17 -9 -31 -9 -35 0 -76 48 -97 112
-19 63 -37 234 -29 285 7 40 77 123 92 107 5 -5 14 -45 20 -89z m-175 -612 c7
-16 21 -57 30 -92 22 -86 53 -124 130 -160 35 -17 68 -36 73 -43 26 -33 19
-237 -12 -343 -21 -72 -68 -143 -102 -151 -74 -19 -203 56 -353 206 -114 114
-188 210 -237 307 -40 82 -40 94 8 167 67 101 167 132 255 81 58 -34 67 -54
59 -128 -4 -34 -5 -60 -2 -57 2 3 18 38 35 77 36 86 79 163 92 163 5 0 16 -12
24 -27z m1686 -183 c0 -20 -261 -140 -340 -156 -95 -20 -364 -14 -453 10 -74
20 -216 87 -199 93 6 3 60 -7 120 -21 59 -13 152 -28 207 -31 193 -13 466 29
581 89 52 27 84 33 84 16z m-973 -131 c191 -84 188 -84 438 -84 249 0 252 1
425 80 140 64 163 70 184 49 33 -32 107 -135 192 -265 155 -236 156 -239 39
-239 -113 0 -137 13 -169 96 -28 75 -61 134 -74 134 -4 0 2 -39 14 -87 13 -49
23 -103 23 -120 l1 -33 -645 0 c-608 0 -645 1 -645 18 0 9 11 64 25 121 14 57
24 106 22 108 -10 9 -41 -42 -66 -107 -42 -108 -45 -110 -145 -110 -47 0 -88
4 -91 10 -3 5 -1 27 5 47 5 21 15 106 21 188 17 235 0 206 137 237 64 14 131
24 147 21 17 -3 89 -32 162 -64z m1350 -526 c62 -3 110 -10 107 -14 -2 -4 -50
-7 -107 -6 -89 1 -108 -1 -145 -21 -92 -49 -142 -166 -149 -354 -5 -106 -3
-120 17 -161 20 -41 21 -46 7 -73 -20 -39 -101 -114 -173 -160 -256 -164 -638
-255 -1171 -279 -132 -6 -132 -6 -137 17 -5 22 -156 1042 -156 1053 0 7 1776
6 1907 -2z m12 -74 c130 -21 146 -47 139 -223 -6 -128 -31 -208 -82 -263 -25
-27 -43 -36 -93 -45 -53 -10 -68 -9 -107 6 -55 21 -90 63 -107 129 -14 58 -7
162 16 229 18 52 82 130 130 159 35 22 25 21 104 8z m271 -359 c0 -6 -11 -32
-24 -58 -43 -88 -112 -328 -135 -472 -8 -51 -7 -81 4 -135 22 -102 21 -107
-16 -103 -18 2 -35 10 -39 18 -5 8 -13 26 -19 40 -7 14 -19 36 -27 50 -19 32
-12 157 16 285 33 147 137 346 194 371 38 16 46 17 46 4z m-2288 -39 c105 -93
209 -434 181 -596 -14 -83 -52 -138 -91 -133 l-27 3 3 93 c6 162 -44 422 -108
574 -17 39 -30 76 -30 84 0 24 26 15 72 -25z m-121 0 c42 -43 39 -68 -12 -81
-50 -14 -144 -18 -155 -7 -13 12 26 75 60 97 43 27 73 25 107 -9z m2575 -5
c34 -34 44 -69 23 -82 -18 -11 -84 -8 -134 6 -49 14 -56 31 -27 66 43 53 91
57 138 10z m-2518 -142 c16 -11 22 -24 20 -42 -3 -23 -10 -29 -53 -40 -71 -18
-159 -19 -179 -2 -25 20 -15 51 23 77 42 29 153 33 189 7z m2474 5 c29 -6 63
-17 76 -25 23 -15 30 -58 11 -70 -17 -10 -138 -5 -194 9 -44 10 -50 15 -53 40
-2 16 2 35 9 43 14 17 77 18 151 3z m-2431 -139 c27 -15 24 -56 -6 -76 -37
-24 -166 -40 -215 -25 -42 12 -60 42 -40 66 13 15 88 33 165 38 28 2 56 4 63
5 7 1 22 -3 33 -8z m2393 -6 c96 -9 108 -16 104 -62 l-3 -37 -97 3 c-53 1
-114 8 -135 15 -34 11 -38 16 -36 42 3 38 29 58 67 51 16 -4 61 -9 100 -12z
m-2356 -185 c2 -29 -2 -49 -10 -56 -22 -17 -194 -36 -216 -24 -25 13 -49 78
-34 93 14 14 149 37 207 35 l50 -2 3 -46z m2334 39 c56 -7 92 -17 95 -25 11
-28 -8 -84 -31 -95 -26 -11 -222 14 -239 31 -12 12 1 67 20 86 18 18 39 19
155 3z m-412 -267 l45 -8 -40 -9 c-50 -11 -1645 -12 -1699 -1 -21 5 -35 11
-31 15 19 20 1605 22 1725 3z"/>
<path d="M2090 1121 c-30 -10 -69 -25 -85 -33 -17 -9 -49 -19 -70 -23 -63 -12
-195 -101 -195 -132 0 -8 14 -22 31 -31 57 -32 63 -39 68 -88 6 -47 7 -49 37
-49 53 -1 67 -22 89 -128 5 -25 9 -28 32 -22 62 15 132 80 161 149 7 15 33 55
57 87 59 76 92 143 100 204 4 28 9 58 12 68 4 15 -5 17 -89 16 -60 0 -112 -6
-148 -18z m124 -81 c56 -67 22 -124 -114 -192 -84 -43 -150 -61 -150 -41 0 4
21 29 47 55 26 26 44 50 40 54 -3 4 -28 -8 -55 -25 -48 -31 -82 -40 -82 -22 0
29 170 204 214 221 27 10 66 -10 100 -50z"/>
<path d="M3600 3371 c-81 -25 -145 -88 -194 -190 -26 -56 -31 -77 -30 -141 0
-68 4 -83 43 -160 41 -82 42 -88 37 -152 -4 -40 -2 -68 3 -68 5 0 92 13 192
30 211 34 265 55 326 127 53 63 69 97 82 169 21 112 -9 204 -96 296 -80 84
-114 98 -238 97 -55 0 -111 -4 -125 -8z m250 -236 c19 -23 -3 -73 -67 -148
l-57 -68 -54 53 c-84 82 -102 133 -60 162 31 22 220 23 238 1z"/>
<path d="M4008 1171 c-51 -33 -126 -130 -162 -212 -13 -30 -40 -102 -61 -161
l-37 -107 -64 -21 c-42 -14 -64 -27 -64 -37 0 -13 9 -14 50 -9 34 5 50 3 50
-4 0 -22 -91 -245 -107 -262 -24 -27 -9 -33 53 -19 70 16 83 36 119 182 15 60
33 113 41 120 15 12 167 10 179 -3 4 -4 2 -41 -4 -83 -12 -82 -14 -216 -5
-253 6 -20 11 -22 38 -16 66 14 78 22 66 44 -22 41 -30 123 -20 202 8 70 13
82 45 113 42 43 44 55 7 55 l-28 0 32 198 c39 233 40 263 16 285 -29 27 -91
21 -144 -12z m99 -37 c3 -9 -13 -107 -37 -218 l-43 -202 -93 1 c-52 0 -94 3
-94 7 0 20 67 203 99 273 54 115 147 192 168 139z"/>
<path d="M5336 879 c-44 -13 -91 -64 -121 -133 -43 -99 -46 -104 -101 -156
-35 -33 -61 -50 -78 -50 -32 0 -33 17 -6 120 26 100 26 164 0 190 -11 11 -27
20 -35 20 -28 0 -91 -38 -123 -75 -27 -30 -32 -33 -32 -15 0 40 -28 90 -50 90
-29 0 -74 -25 -121 -67 l-41 -37 7 36 c8 42 -3 52 -44 43 -24 -5 -30 -13 -40
-60 -26 -116 -218 -288 -245 -219 -7 19 6 80 45 200 17 52 29 97 26 100 -12
12 -68 -9 -82 -29 -33 -51 -59 -250 -39 -302 10 -24 62 -48 92 -40 14 3 58 38
98 77 l73 70 -14 -53 c-26 -97 -17 -121 33 -95 23 12 31 26 41 70 26 118 101
226 157 226 21 0 24 -4 24 -39 0 -21 -13 -85 -30 -142 -16 -57 -30 -107 -30
-111 0 -11 42 -10 59 1 8 5 21 33 28 63 20 80 59 152 103 192 75 67 93 43 62
-84 -27 -107 -28 -152 -4 -173 42 -38 141 -4 204 71 32 38 38 40 38 8 0 -14
12 -38 26 -55 41 -49 103 -42 167 18 l29 26 -7 -30 c-5 -19 -27 -47 -59 -74
-28 -25 -77 -70 -108 -102 -47 -48 -58 -64 -64 -104 -10 -70 10 -148 50 -190
83 -87 135 -16 199 272 l32 142 45 32 c25 17 61 47 80 65 l35 34 22 -48 c52
-114 176 -106 308 19 30 29 55 48 55 43 0 -5 -7 -34 -15 -64 -19 -71 -19 -70
8 -70 35 0 54 27 73 105 27 112 93 205 145 205 32 0 33 -27 5 -139 -14 -58
-26 -114 -26 -123 0 -27 37 -58 68 -58 57 0 155 89 219 197 33 57 19 69 -21
18 -61 -78 -143 -155 -164 -155 -29 0 -28 16 4 137 26 102 26 143 -3 175 -30
34 -81 21 -142 -36 l-33 -31 7 33 c8 38 -12 51 -50 34 -18 -8 -26 -25 -38 -78
-14 -61 -22 -73 -79 -131 -35 -35 -86 -75 -115 -89 -45 -23 -56 -24 -86 -15
-30 10 -57 43 -57 71 0 5 21 24 48 42 113 78 162 145 148 203 -7 29 -41 40
-93 30 -49 -9 -134 -96 -159 -162 -9 -26 -33 -65 -53 -86 -38 -40 -109 -93
-115 -86 -6 6 53 258 65 280 14 26 12 29 -22 29 -25 0 -33 -6 -42 -30 -12 -31
-27 -40 -27 -16 0 20 -41 63 -65 69 -11 3 -33 1 -49 -4z m57 -54 c9 -8 18 -33
22 -55 4 -22 11 -42 16 -46 26 -16 -10 -105 -61 -148 -36 -30 -81 -34 -101 -9
-24 28 -16 130 14 190 38 74 79 100 110 68z m-23 -426 c0 -19 -51 -212 -65
-247 -11 -26 -20 -33 -37 -30 -29 4 -42 64 -27 129 14 63 129 195 129 148z"/>
</g>
</svg>
